<?xml version="1.0" encoding="UTF-8"?>
<!-- Created with Inkscape (http://www.inkscape.org/) -->
<svg width="800" height="800" version="1.1" viewBox="0 0 211.67 211.67" xmlns="http://www.w3.org/2000/svg">
 <g fill="#01579b">
  <path transform="matrix(.33503 0 0 .33503 27.4 -13.045)" d="m328.86 233.61h-68.298-121.21a15.276 15.276 60 0 1-13.229-22.914l94.756-164.12a15.276 15.276 2.522e-7 0 1 26.458 0l94.756 164.12a15.276 15.276 120 0 1-13.229 22.914z"/>
  <path transform="matrix(0 -.33503 .33503 0 -13.045 184.27)" d="m328.86 233.61h-68.298-121.21a15.276 15.276 60 0 1-13.229-22.914l94.756-164.12a15.276 15.276 2.522e-7 0 1 26.458 0l94.756 164.12a15.276 15.276 120 0 1-13.229 22.914z"/>
  <path transform="matrix(0 .33503 -.33503 0 224.71 27.4)" d="m328.86 233.61h-68.298-121.21a15.276 15.276 60 0 1-13.229-22.914l94.756-164.12a15.276 15.276 2.522e-7 0 1 26.458 0l94.756 164.12a15.276 15.276 120 0 1-13.229 22.914z"/>
  <path transform="matrix(.33503 0 0 -.33503 27.4 224.71)" d="m328.86 233.61h-68.298-121.21a15.276 15.276 60 0 1-13.229-22.914l94.756-164.12a15.276 15.276 2.522e-7 0 1 26.458 0l94.756 164.12a15.276 15.276 120 0 1-13.229 22.914z"/>
 </g>
 <g fill="#0288d1">
  <path transform="matrix(.2369 .2369 -.2369 .2369 134.49 -33.616)" d="m328.86 233.61h-68.298-121.21a15.276 15.276 60 0 1-13.229-22.914l94.756-164.12a15.276 15.276 2.522e-7 0 1 26.458 0l94.756 164.12a15.276 15.276 120 0 1-13.229 22.914z"/>
  <path transform="matrix(.2369 -.2369 .2369 .2369 -33.629 77.305)" d="m328.86 233.61h-68.298-121.21a15.276 15.276 60 0 1-13.229-22.914l94.756-164.12a15.276 15.276 2.522e-7 0 1 26.458 0l94.756 164.12a15.276 15.276 120 0 1-13.229 22.914z"/>
  <path transform="matrix(-.2369 .2369 -.2369 -.2369 245.41 134.5)" d="m328.86 233.61h-68.298-121.21a15.276 15.276 60 0 1-13.229-22.914l94.756-164.12a15.276 15.276 2.522e-7 0 1 26.458 0l94.756 164.12a15.276 15.276 120 0 1-13.229 22.914z"/>
  <path transform="matrix(.2369 .2369 .2369 -.2369 -33.629 134.5)" d="m328.86 233.61h-68.298-121.21a15.276 15.276 60 0 1-13.229-22.914l94.756-164.12a15.276 15.276 2.522e-7 0 1 26.458 0l94.756 164.12a15.276 15.276 120 0 1-13.229 22.914z"/>
 </g>
 <circle cx="105.83" cy="105.83" r="21.162" fill="#ff5722" stroke-width=".24085"/>
</svg>
